<svg width="34.000000" height="34.000000" viewBox="0 0 34 34" fill="none" xmlns="http://www.w3.org/2000/svg" xmlns:xlink="http://www.w3.org/1999/xlink">
	<desc>
			Created with Pixso.
	</desc>
	<defs>
		<clipPath id="clip324_30">
			<rect width="34.000000" height="34.000000" fill="white" fill-opacity="0"/>
		</clipPath>
	</defs>
	<rect width="34.000000" height="34.000000" fill="#000000" fill-opacity="0"/>
	<g clip-path="url(#clip324_30)">
		<path d="M17.007 2.83325C20.8036 2.83325 23.9249 5.81665 24.0833 9.59692L24.0463 9.59692C24.0508 9.70679 24.0297 9.81616 23.9846 9.9165L24.2058 9.9165C25.9299 9.9165 27.7353 11.1116 28.4592 13.9963L28.5378 14.3367L29.6271 23.1125C30.411 28.7097 27.3487 31.0635 23.1713 31.1633L22.8912 31.1665L11.1471 31.1665C6.90167 31.1665 3.63025 29.6196 4.34955 23.4934L4.39862 23.1125L5.50043 14.3367C6.0437 11.23 7.86761 10.0049 9.625 9.92114L9.81995 9.9165L9.93066 9.9165C9.91199 9.81079 9.91199 9.70264 9.93066 9.59692C10.0891 5.81665 13.2104 2.83325 17.007 2.83325ZM12.8874 14.6331C12.1959 14.6331 11.6354 15.21 11.6354 15.9216C11.6354 16.6335 12.1959 17.2104 12.8874 17.2104C13.5789 17.2104 14.1395 16.6335 14.1395 15.9216L14.1297 15.76C14.0524 15.1248 13.5257 14.6331 12.8874 14.6331ZM21.0883 14.6331C20.3968 14.6331 19.8362 15.21 19.8362 15.9216C19.8362 16.6335 20.3968 17.2104 21.0883 17.2104C21.7797 17.2104 22.3403 16.6335 22.3403 15.9216C22.3403 15.21 21.7797 14.6331 21.0883 14.6331ZM16.9515 4.67822C14.2256 4.67822 12.0159 6.88037 12.0159 9.59692C12.0346 9.70264 12.0346 9.81079 12.0159 9.9165L21.9487 9.9165C21.9093 9.81445 21.8884 9.7063 21.887 9.59692C21.887 6.88037 19.6773 4.67822 16.9515 4.67822Z" fill="#FFFFFF" fill-opacity="1.000000" fill-rule="nonzero"/>
	</g>
</svg>
