<svg width="26.000000" height="26.000000" viewBox="0 0 26 26" fill="none" xmlns="http://www.w3.org/2000/svg" xmlns:xlink="http://www.w3.org/1999/xlink">
	<desc>
			Created with Pixso.
	</desc>
	<defs>
		<filter id="filter_324_48_dd" x="0.000000" y="0.000000" width="26.000000" height="26.000000" filterUnits="userSpaceOnUse" color-interpolation-filters="sRGB">
			<feFlood flood-opacity="0" result="BackgroundImageFix"/>
			<feColorMatrix in="SourceAlpha" type="matrix" values="0 0 0 0 0 0 0 0 0 0 0 0 0 0 0 0 0 0 127 0" result="hardAlpha"/>
			<feOffset dx="0" dy="4"/>
			<feGaussianBlur stdDeviation="1.33333"/>
			<feComposite in2="hardAlpha" operator="out" k2="-1" k3="1"/>
			<feColorMatrix type="matrix" values="0 0 0 0 0 0 0 0 0 0 0 0 0 0 0 0 0 0 0.25 0"/>
			<feBlend mode="normal" in2="BackgroundImageFix" result="effect_dropShadow_1"/>
			<feBlend mode="normal" in="SourceGraphic" in2="effect_dropShadow_1" result="shape"/>
		</filter>
		<clipPath id="clip324_48">
			<rect width="18.000000" height="18.000000" transform="translate(4.000000 0.000000)" fill="white" fill-opacity="0"/>
		</clipPath>
	</defs>
	<g filter="url(#filter_324_48_dd)">
		<rect width="18.000000" height="18.000000" transform="translate(4.000000 0.000000)" fill="#FFFFFF" fill-opacity="0"/>
		<g clip-path="url(#clip324_48)">
			<path d="M16.341 5.59131C16.4995 5.44043 16.7104 5.35693 16.9292 5.35864C17.1479 5.36035 17.3576 5.44702 17.5137 5.6001C17.6699 5.75342 17.7604 5.96143 17.7662 6.18018C17.772 6.39893 17.6926 6.61133 17.5447 6.77246L13.056 12.3862C12.9788 12.4695 12.8857 12.5361 12.7821 12.5825C12.6785 12.6287 12.5667 12.6538 12.4533 12.6558C12.3398 12.658 12.2272 12.6372 12.1219 12.5947C12.0168 12.5522 11.9212 12.489 11.841 12.4087L8.86426 9.43213C8.78137 9.35474 8.71484 9.26172 8.66876 9.1582C8.62262 9.05469 8.59784 8.94287 8.59583 8.82959C8.59381 8.71631 8.61469 8.60376 8.6571 8.49878C8.69952 8.3938 8.7627 8.29834 8.84283 8.21802C8.92297 8.13794 9.01837 8.07495 9.12347 8.03247C9.22852 7.98999 9.34106 7.96924 9.45435 7.97119C9.56763 7.97314 9.67938 7.99805 9.78284 8.04395C9.88635 8.09009 9.97949 8.15674 10.0568 8.2395L12.4125 10.5942L16.3196 5.61597C16.3267 5.60742 16.3342 5.59912 16.3421 5.59131L16.341 5.59131Z" fill="#FFFFFF" fill-opacity="1.000000" fill-rule="nonzero"/>
		</g>
	</g>
</svg>
